# Blender v2.75 (sub 0) OBJ File: ''
# www.blender.org
mtllib cabinet3.mtl
o handles_Untitled.001
v -0.037961 1.068514 -0.301589
v -0.037961 1.068514 -0.309914
v -0.037961 1.076839 -0.301589
v -0.037961 1.076839 -0.309914
v -0.029636 1.068514 -0.301589
v -0.029636 1.068514 -0.309914
v -0.029636 1.076839 -0.301589
v -0.029636 1.076839 -0.309914
v -0.037961 0.958289 -0.301589
v -0.037961 0.958289 -0.309914
v -0.029636 0.958289 -0.309914
v -0.029636 0.958289 -0.301589
v -0.037961 0.949964 -0.301589
v -0.037961 0.949964 -0.309914
v -0.029636 0.949964 -0.309914
v -0.029636 0.949964 -0.301589
v -0.037961 1.076839 -0.273647
v -0.037961 1.068514 -0.273647
v -0.029636 1.068514 -0.273647
v -0.029636 1.076839 -0.273647
v -0.029636 0.958289 -0.273647
v -0.037961 0.958289 -0.273647
v -0.037961 0.949964 -0.273647
v -0.029636 0.949964 -0.273647
v 0.029556 1.068514 -0.301589
v 0.029556 1.068514 -0.309914
v 0.029556 1.076839 -0.301589
v 0.029556 1.076839 -0.309914
v 0.037881 1.068514 -0.301589
v 0.037881 1.068514 -0.309914
v 0.037881 1.076839 -0.301589
v 0.037881 1.076839 -0.309914
v 0.029556 0.958289 -0.301589
v 0.029556 0.958289 -0.309914
v 0.037881 0.958289 -0.309914
v 0.037881 0.958289 -0.301589
v 0.029556 0.949964 -0.301589
v 0.029556 0.949964 -0.309914
v 0.037881 0.949964 -0.309914
v 0.037881 0.949964 -0.301589
v 0.029556 1.076839 -0.273648
v 0.029556 1.068514 -0.273648
v 0.037881 1.068514 -0.273648
v 0.037881 1.076839 -0.273648
v 0.037881 0.958289 -0.273648
v 0.029556 0.958289 -0.273648
v 0.029556 0.949964 -0.273648
v 0.037881 0.949964 -0.273648
vt 7.211292 0.491821
vt 7.211292 0.483498
vt 7.219615 0.483498
vt 7.219615 0.491821
vt -6.211292 0.491821
vt -6.219615 0.491821
vt -6.219615 0.483498
vt -6.211292 0.483498
vt 6.568892 -6.211292
vt 6.568892 -6.219615
vt 6.577215 -6.219615
vt 6.577215 -6.211292
vt 6.568892 0.491821
vt 6.568892 0.483498
vt 6.577215 0.483498
vt 6.577215 0.491821
vt -5.568892 -6.219615
vt -5.568892 -6.211292
vt -5.577215 -6.211292
vt -5.577215 -6.219615
vt 7.211292 0.373293
vt 7.219615 0.373293
vt 6.568892 0.373293
vt 6.577215 0.373293
vt -6.219615 0.373293
vt -6.211292 0.373293
vt -5.577215 0.373293
vt -5.568892 0.373293
vt -5.568892 0.483498
vt -5.577215 0.483498
vt 7.211292 0.364970
vt 7.219615 0.364970
vt 6.568892 0.364970
vt 6.577215 0.364970
vt -6.219615 0.364970
vt -6.211292 0.364970
vt 7.247552 0.483498
vt 7.247552 0.491821
vt 6.568892 -6.247552
vt 6.577215 -6.247552
vt -6.247552 0.491821
vt -6.247552 0.483498
vt -5.577215 -6.247552
vt -5.568892 -6.247552
vt 7.247552 0.364970
vt 7.247552 0.373293
vt -6.247552 0.373293
vt -6.247552 0.364970
vt 6.501387 -6.211291
vt 6.501387 -6.219615
vt 6.509710 -6.219615
vt 6.509710 -6.211291
vt 6.501387 0.491821
vt 6.501387 0.483498
vt 6.509710 0.483498
vt 6.509710 0.491821
vt -5.501387 -6.219615
vt -5.501387 -6.211291
vt -5.509710 -6.211291
vt -5.509710 -6.219615
vt 6.501387 0.373293
vt 6.509710 0.373293
vt -5.509710 0.373293
vt -5.501387 0.373293
vt -5.501387 0.483498
vt -5.509710 0.483498
vt 6.501387 0.364970
vt 6.509710 0.364970
vt 6.501387 -6.247551
vt 6.509710 -6.247551
vt -5.509710 -6.247551
vt -5.501387 -6.247551
vn -1.000000 0.000000 -0.000000
vn 1.000000 -0.000000 0.000000
vn 0.000000 -1.000000 0.000000
vn 0.000000 0.000000 -1.000000
vn 0.000000 1.000000 -0.000000
vn 0.000000 0.000000 1.000000
usemtl base_material
s 1
f 4/1/1 2/2/1 1/3/1
f 1/3/1 3/4/1 4/1/1
f 8/5/2 7/6/2 5/7/2
f 5/7/2 6/8/2 8/5/2
f 15/9/3 16/10/3 13/11/3
f 13/11/3 14/12/3 15/9/3
f 8/13/4 6/14/4 2/15/4
f 2/15/4 4/16/4 8/13/4
f 7/17/5 8/18/5 4/19/5
f 4/19/5 3/20/5 7/17/5
f 10/21/1 9/22/1 1/3/1
f 1/3/1 2/2/1 10/21/1
f 11/23/4 10/24/4 2/15/4
f 2/15/4 6/14/4 11/23/4
f 12/25/2 11/26/2 6/8/2
f 6/8/2 5/7/2 12/25/2
f 9/27/6 12/28/6 5/29/6
f 5/29/6 1/30/6 9/27/6
f 14/31/1 13/32/1 9/22/1
f 9/22/1 10/21/1 14/31/1
f 15/33/4 14/34/4 10/24/4
f 10/24/4 11/23/4 15/33/4
f 16/35/2 15/36/2 11/26/2
f 11/26/2 12/25/2 16/35/2
f 18/37/1 17/38/1 3/4/1
f 3/4/1 1/3/1 18/37/1
f 19/39/3 18/40/3 1/11/3
f 1/11/3 5/10/3 19/39/3
f 20/41/2 19/42/2 5/7/2
f 5/7/2 7/6/2 20/41/2
f 17/43/5 20/44/5 7/17/5
f 7/17/5 3/20/5 17/43/5
f 22/43/5 21/44/5 12/17/5
f 12/17/5 9/20/5 22/43/5
f 23/45/1 22/46/1 9/22/1
f 9/22/1 13/32/1 23/45/1
f 24/39/3 23/40/3 13/11/3
f 13/11/3 16/10/3 24/39/3
f 21/47/2 24/48/2 16/35/2
f 16/35/2 12/25/2 21/47/2
f 28/1/1 26/2/1 25/3/1
f 25/3/1 27/4/1 28/1/1
f 32/5/2 31/6/2 29/7/2
f 29/7/2 30/8/2 32/5/2
f 39/49/3 40/50/3 37/51/3
f 37/51/3 38/52/3 39/49/3
f 32/53/4 30/54/4 26/55/4
f 26/55/4 28/56/4 32/53/4
f 31/57/5 32/58/5 28/59/5
f 28/59/5 27/60/5 31/57/5
f 34/21/1 33/22/1 25/3/1
f 25/3/1 26/2/1 34/21/1
f 35/61/4 34/62/4 26/55/4
f 26/55/4 30/54/4 35/61/4
f 36/25/2 35/26/2 30/8/2
f 30/8/2 29/7/2 36/25/2
f 33/63/6 36/64/6 29/65/6
f 29/65/6 25/66/6 33/63/6
f 38/31/1 37/32/1 33/22/1
f 33/22/1 34/21/1 38/31/1
f 39/67/4 38/68/4 34/62/4
f 34/62/4 35/61/4 39/67/4
f 40/35/2 39/36/2 35/26/2
f 35/26/2 36/25/2 40/35/2
f 42/37/1 41/38/1 27/4/1
f 27/4/1 25/3/1 42/37/1
f 43/69/3 42/70/3 25/51/3
f 25/51/3 29/50/3 43/69/3
f 44/41/2 43/42/2 29/7/2
f 29/7/2 31/6/2 44/41/2
f 41/71/5 44/72/5 31/57/5
f 31/57/5 27/60/5 41/71/5
f 46/71/5 45/72/5 36/57/5
f 36/57/5 33/60/5 46/71/5
f 47/45/1 46/46/1 33/22/1
f 33/22/1 37/32/1 47/45/1
f 48/69/3 47/70/3 37/51/3
f 37/51/3 40/50/3 48/69/3
f 45/47/2 48/48/2 40/35/2
f 40/35/2 36/25/2 45/47/2
o legs_Untitled.002
v -0.482353 -0.002821 0.282719
v -0.482353 -0.002821 0.232711
v -0.482353 0.047188 0.282719
v -0.482353 0.047188 0.232711
v -0.432344 -0.002821 0.282719
v -0.432344 -0.002821 0.232711
v -0.432344 0.047188 0.282719
v -0.432344 0.047188 0.232711
v 0.433397 -0.002821 0.282719
v 0.433397 -0.002821 0.232710
v 0.433397 0.047188 0.282719
v 0.433397 0.047188 0.232710
v 0.483406 -0.002821 0.282719
v 0.483406 -0.002821 0.232710
v 0.483406 0.047188 0.282719
v 0.483406 0.047188 0.232710
v 0.433397 -0.002821 -0.214409
v 0.433397 -0.002821 -0.264418
v 0.433397 0.047188 -0.214409
v 0.433397 0.047188 -0.264418
v 0.483406 -0.002821 -0.214409
v 0.483406 -0.002821 -0.264418
v 0.483406 0.047188 -0.214409
v 0.483406 0.047188 -0.264418
v -0.482353 -0.002821 -0.214409
v -0.482353 -0.002821 -0.264418
v -0.482353 0.047188 -0.214409
v -0.482353 0.047188 -0.264418
v -0.432344 -0.002821 -0.214409
v -0.432344 -0.002821 -0.264418
v -0.432344 0.047188 -0.214409
v -0.432344 0.047188 -0.264418
vt 7.753819 -0.537646
vt 7.753819 -0.587646
vt 7.803819 -0.587646
vt 7.803819 -0.537646
vt -6.753819 -0.537646
vt -6.803819 -0.537646
vt -6.803819 -0.587646
vt -6.753819 -0.587646
vt 6.971528 -0.537646
vt 6.971528 -0.587646
vt 7.021528 -0.587646
vt 7.021528 -0.537646
vt -5.971528 -0.587646
vt -5.971528 -0.537646
vt -6.021528 -0.537646
vt -6.021528 -0.587646
vt 6.055942 -0.537646
vt 6.055942 -0.587646
vt 6.105942 -0.587646
vt 6.105942 -0.537646
vt -5.055942 -0.587646
vt -5.055942 -0.537646
vt -5.105942 -0.537646
vt -5.105942 -0.587646
vt 7.256779 -0.537646
vt 7.256779 -0.587646
vt 7.306778 -0.587646
vt 7.306778 -0.537646
vt -6.256779 -0.537646
vt -6.306778 -0.537646
vt -6.306778 -0.587646
vt -6.256779 -0.587646
vn -1.000000 0.000000 -0.000000
vn 1.000000 0.000000 0.000000
vn -0.000000 0.000000 -1.000000
vn -0.000000 0.000000 1.000000
usemtl base_material
s 1
f 52/73/7 50/74/7 49/75/7
f 49/75/7 51/76/7 52/73/7
f 56/77/8 55/78/8 53/79/8
f 53/79/8 54/80/8 56/77/8
f 56/81/9 54/82/9 50/83/9
f 50/83/9 52/84/9 56/81/9
f 53/85/10 55/86/10 51/87/10
f 51/87/10 49/88/10 53/85/10
f 60/73/7 58/74/7 57/75/7
f 57/75/7 59/76/7 60/73/7
f 64/77/8 63/78/8 61/79/8
f 61/79/8 62/80/8 64/77/8
f 64/89/9 62/90/9 58/91/9
f 58/91/9 60/92/9 64/89/9
f 61/93/10 63/94/10 59/95/10
f 59/95/10 57/96/10 61/93/10
f 68/97/7 66/98/7 65/99/7
f 65/99/7 67/100/7 68/97/7
f 72/101/8 71/102/8 69/103/8
f 69/103/8 70/104/8 72/101/8
f 72/89/9 70/90/9 66/91/9
f 66/91/9 68/92/9 72/89/9
f 69/93/10 71/94/10 67/95/10
f 67/95/10 65/96/10 69/93/10
f 76/97/7 74/98/7 73/99/7
f 73/99/7 75/100/7 76/97/7
f 80/101/8 79/102/8 77/103/8
f 77/103/8 78/104/8 80/101/8
f 80/81/9 78/82/9 74/83/9
f 74/83/9 76/84/9 80/81/9
f 77/85/10 79/86/10 75/87/10
f 75/87/10 73/88/10 77/85/10
o doors_Untitled.003
v -0.479019 0.059038 -0.278361
v -0.000850 0.059038 -0.278361
v -0.479019 2.017823 -0.278361
v -0.000850 2.017823 -0.278361
v -0.479019 0.059038 -0.264038
v -0.000850 0.059038 -0.264038
v -0.479019 2.017823 -0.264038
v -0.000850 2.017823 -0.264038
v 0.001094 0.059038 -0.278362
v 0.479264 0.059038 -0.278361
v 0.001095 2.017823 -0.278361
v 0.479264 2.017823 -0.278361
v 0.001094 0.059038 -0.264038
v 0.479264 0.059038 -0.264038
v 0.001095 2.017823 -0.264038
v 0.479264 2.017823 -0.264038
vt 6.540111 1.432637
vt 6.540111 -0.525798
vt 7.018195 -0.525798
vt 7.018195 1.432637
vt 6.540111 -6.257160
vt 7.018195 -6.257160
vt 7.018195 -6.242839
vt 6.540111 -6.242839
vt -6.257160 1.432637
vt -6.257160 -0.525798
vt -6.242839 -0.525798
vt -6.242840 1.432637
vt -6.018195 -6.257160
vt -5.540111 -6.257160
vt -5.540111 -6.242840
vt -6.018195 -6.242839
vt 7.257160 -0.525798
vt 7.257160 1.432637
vt 7.242839 1.432637
vt 7.242839 -0.525798
vt 6.060082 1.432637
vt 6.060082 -0.525798
vt 6.538167 -0.525798
vt 6.538167 1.432637
vt 6.060082 -6.257160
vt 6.538167 -6.257160
vt 6.538167 -6.242839
vt 6.060082 -6.242839
vt -5.538167 -6.257160
vt -5.060082 -6.257160
vt -5.060082 -6.242839
vt -5.538167 -6.242839
vn 0.000000 0.000000 -1.000000
vn 0.000000 -1.000000 0.000000
vn 1.000000 -0.000000 0.000000
vn 0.000000 1.000000 0.000000
vn -1.000000 0.000000 0.000000
usemtl base_material
s 1
f 84/105/11 82/106/11 81/107/11
f 81/107/11 83/108/11 84/105/11
f 86/109/12 85/110/12 81/111/12
f 81/111/12 82/112/12 86/109/12
f 88/113/13 86/114/13 82/115/13
f 82/115/13 84/116/13 88/113/13
f 87/117/14 88/118/14 84/119/14
f 84/119/14 83/120/14 87/117/14
f 85/121/15 87/122/15 83/123/15
f 83/123/15 81/124/15 85/121/15
f 92/125/11 90/126/11 89/127/11
f 89/127/11 91/128/11 92/125/11
f 94/129/12 93/130/12 89/131/12
f 89/131/12 90/132/12 94/129/12
f 96/113/13 94/114/13 90/115/13
f 90/115/13 92/116/13 96/113/13
f 95/133/14 96/134/14 92/135/14
f 92/135/14 91/136/14 95/133/14
f 93/121/15 95/122/15 91/123/15
f 91/123/15 89/124/15 93/121/15
o base_Untitled
v 0.500089 0.038330 0.309914
v 0.500089 0.038330 -0.290193
v -0.500089 0.038330 0.309914
v -0.500089 0.038330 -0.290193
v 0.500089 2.038687 0.309914
v 0.500089 2.038687 -0.290193
v -0.500089 2.038687 0.309914
v -0.500089 2.038687 -0.290193
v 0.480086 0.058334 -0.290193
v -0.480086 0.058334 -0.290193
v -0.480086 2.018684 -0.290193
v 0.480086 2.018684 -0.290193
v 0.480086 0.058334 -0.233030
v -0.480086 0.058334 -0.233030
v -0.480086 2.018684 -0.233030
v 0.480086 2.018684 -0.233030
vt 6.039260 -6.831008
vt 7.039260 -6.831008
vt 7.039260 -6.231008
vt 6.039260 -6.231009
vt -5.039260 -6.831008
vt -5.039260 -6.231009
vt -6.039260 -6.231008
vt -6.039260 -6.831008
vt -6.831008 -0.546502
vt -6.231009 -0.546502
vt -6.231009 1.453498
vt -6.831008 1.453498
vt 7.231008 -0.546502
vt 7.831008 -0.546502
vt 7.831008 1.453498
vt 7.231008 1.453498
vt -6.039260 -0.546502
vt -5.039260 -0.546502
vt -5.039260 1.453498
vt -6.039260 1.453498
vt 6.039260 -0.546502
vt 7.039260 -0.546502
vt 7.019260 -0.526502
vt 6.059260 -0.526502
vt 7.039260 1.453498
vt 7.019260 1.433498
vt 6.039260 1.453498
vt 6.059260 1.433498
vt -5.059260 -6.231009
vt -6.019260 -6.231008
vt -6.019260 -6.288161
vt -5.059260 -6.288161
vt -6.231008 -0.526502
vt -6.231008 1.433498
vt -6.288161 1.433498
vt -6.288161 -0.526502
vt 7.019260 -6.231008
vt 6.059260 -6.231009
vt 6.059260 -6.288161
vt 7.019260 -6.288161
vt 7.231009 1.433498
vt 7.231009 -0.526502
vt 7.288161 -0.526502
vt 7.288161 1.433498
vn -0.000000 -1.000000 0.000000
vn 0.000000 1.000000 0.000000
vn 1.000000 0.000000 0.000000
vn -1.000000 0.000000 -0.000000
vn -0.000000 0.000000 1.000000
vn 0.000000 -0.000000 -1.000000
usemtl base_material
s 1
f 97/137/16 99/138/16 100/139/16 98/140/16
f 101/141/17 102/142/17 104/143/17 103/144/17
f 97/145/18 98/146/18 102/147/18 101/148/18
f 100/149/19 99/150/19 103/151/19 104/152/19
f 99/153/20 97/154/20 101/155/20 103/156/20
f 98/157/21 100/158/21 106/159/21 105/160/21
f 100/158/21 104/161/21 107/162/21 106/159/21
f 104/161/21 102/163/21 108/164/21 107/162/21
f 102/163/21 98/157/21 105/160/21 108/164/21
f 105/165/17 106/166/17 110/167/17 109/168/17
f 106/169/18 107/170/18 111/171/18 110/172/18
f 107/173/16 108/174/16 112/175/16 111/176/16
f 108/177/19 105/178/19 109/179/19 112/180/19
