# Blender v2.75 (sub 0) OBJ File: ''
# www.blender.org
mtllib coffee_table1.mtl
o up_Untitled
v 0.431515 0.293518 -0.229624
v -0.431515 0.293518 -0.229624
v -0.431515 0.293518 0.229624
v 0.431515 0.293518 0.229624
v -0.450080 0.293518 -0.229624
v -0.450080 0.293518 0.229624
v 0.450080 0.293518 0.229624
v 0.450080 0.293518 -0.229624
v -0.431515 0.293518 0.250045
v 0.431515 0.293518 0.250045
v 0.431515 0.293518 -0.250045
v -0.431515 0.293518 -0.250045
v -0.450080 0.293518 0.250045
v -0.450080 0.293518 -0.250045
v 0.450080 0.293518 -0.250045
v 0.450080 0.293518 0.250045
v 0.450080 0.273514 -0.250045
v 0.431515 0.273514 -0.250045
v -0.431515 0.273514 -0.250045
v -0.450080 0.273514 -0.250045
v -0.450080 0.273514 -0.229624
v -0.450080 0.273514 0.229624
v -0.450080 0.273514 0.250045
v -0.431515 0.273514 0.250045
v 0.431515 0.273514 0.250045
v 0.450080 0.273514 0.250045
v 0.450080 0.273514 0.229624
v 0.450080 0.273514 -0.229624
vt 5.851946 -0.032666
vt 4.989071 -0.032666
vt 4.989071 -0.491833
vt 5.851946 -0.491833
vt 4.970509 -0.032666
vt 4.970509 -0.491833
vt 5.870508 -0.491833
vt 5.870508 -0.032666
vt 4.989071 -0.512250
vt 5.851946 -0.512250
vt 5.851946 -0.012250
vt 4.989071 -0.012250
vt 4.970509 -0.512250
vt 4.970509 -0.012250
vt 5.870508 -0.012250
vt 5.870508 -0.512250
vt -4.851946 -0.291360
vt -4.870508 -0.291360
vt -4.870508 -0.311360
vt -4.851946 -0.311360
vt -3.989071 -0.291360
vt -3.989071 -0.311360
vt -3.970509 -0.291360
vt -3.970509 -0.311360
vt 1.032666 -0.291360
vt 1.012250 -0.291360
vt 1.012250 -0.311360
vt 1.032666 -0.311360
vt 1.491833 -0.291360
vt 1.491833 -0.311360
vt 1.512250 -0.291360
vt 1.512250 -0.311360
vt 4.989071 -0.291360
vt 4.970509 -0.291360
vt 4.970509 -0.311360
vt 4.989071 -0.311360
vt 5.851946 -0.291360
vt 5.851946 -0.311360
vt 5.870508 -0.291360
vt 5.870508 -0.311360
vt -0.491833 -0.291360
vt -0.512250 -0.291360
vt -0.512250 -0.311360
vt -0.491833 -0.311360
vt -0.032666 -0.291360
vt -0.032666 -0.311360
vt -0.012250 -0.291360
vt -0.012250 -0.311360
vn 0.000000 1.000000 0.000000
vn 0.000000 0.000000 -1.000000
vn -1.000000 0.000000 0.000000
vn 0.000000 -0.000000 1.000000
vn 1.000000 -0.000000 0.000000
usemtl base_material.001
s 1
f 1/1/1 2/2/1 3/3/1
f 3/3/1 4/4/1 1/1/1
f 2/2/1 5/5/1 6/6/1
f 6/6/1 3/3/1 2/2/1
f 4/4/1 7/7/1 8/8/1
f 8/8/1 1/1/1 4/4/1
f 4/4/1 3/3/1 9/9/1
f 9/9/1 10/10/1 4/4/1
f 2/2/1 1/1/1 11/11/1
f 11/11/1 12/12/1 2/2/1
f 3/3/1 6/6/1 13/13/1
f 13/13/1 9/9/1 3/3/1
f 5/5/1 2/2/1 12/12/1
f 12/12/1 14/14/1 5/5/1
f 1/1/1 8/8/1 15/15/1
f 15/15/1 11/11/1 1/1/1
f 7/7/1 4/4/1 10/10/1
f 10/10/1 16/16/1 7/7/1
f 11/17/2 15/18/2 17/19/2
f 17/19/2 18/20/2 11/17/2
f 12/21/2 11/17/2 18/20/2
f 18/20/2 19/22/2 12/21/2
f 14/23/2 12/21/2 19/22/2
f 19/22/2 20/24/2 14/23/2
f 5/25/3 14/26/3 20/27/3
f 20/27/3 21/28/3 5/25/3
f 6/29/3 5/25/3 21/28/3
f 21/28/3 22/30/3 6/29/3
f 13/31/3 6/29/3 22/30/3
f 22/30/3 23/32/3 13/31/3
f 9/33/4 13/34/4 23/35/4
f 23/35/4 24/36/4 9/33/4
f 10/37/4 9/33/4 24/36/4
f 24/36/4 25/38/4 10/37/4
f 16/39/4 10/37/4 25/38/4
f 25/38/4 26/40/4 16/39/4
f 7/41/5 16/42/5 26/43/5
f 26/43/5 27/44/5 7/41/5
f 8/45/5 7/41/5 27/44/5
f 27/44/5 28/46/5 8/45/5
f 15/47/5 8/45/5 28/46/5
f 28/46/5 17/48/5 15/47/5
o metal_Untitled.001
v -0.431515 0.253511 0.229624
v -0.431515 0.253511 -0.229624
v 0.431515 0.253511 -0.229624
v 0.431515 0.253511 0.229624
v 0.431515 0.253511 -0.250045
v -0.431515 0.253511 -0.250045
v -0.431515 0.273514 -0.250045
v 0.431515 0.273514 -0.250045
v -0.450080 0.253511 -0.229624
v -0.450080 0.253511 0.229624
v -0.450080 0.273514 0.229624
v -0.450080 0.273514 -0.229624
v -0.431515 0.253511 0.250045
v 0.431515 0.253511 0.250045
v 0.431515 0.273514 0.250045
v -0.431515 0.273514 0.250045
v 0.450080 0.253511 0.229624
v 0.450080 0.253511 -0.229624
v 0.450080 0.273514 -0.229624
v 0.450080 0.273514 0.229624
v -0.450080 0.253511 -0.250045
v -0.450080 0.273514 -0.250045
v 0.450080 0.273514 -0.250045
v 0.450080 0.253511 -0.250045
v 0.450080 0.253511 0.250045
v 0.450080 0.273514 0.250045
v -0.450080 0.273514 0.250045
v -0.450080 0.253511 0.250045
v -0.450080 0.000519 -0.229624
v -0.450080 0.000519 -0.250045
v -0.431515 0.000519 -0.250045
v -0.431515 0.000519 -0.229624
v -0.431515 0.000519 0.229624
v -0.431515 0.000519 0.250045
v -0.450080 0.000519 0.250045
v -0.450080 0.000519 0.229624
v 0.450080 0.000519 0.229624
v 0.450080 0.000519 0.250045
v 0.431515 0.000519 0.250045
v 0.431515 0.000519 0.229624
v 0.431515 0.000519 -0.229624
v 0.431515 0.000519 -0.250045
v 0.450080 0.000519 -0.250045
v 0.450080 0.000519 -0.229624
v -0.431515 0.153493 -0.250045
v -0.450080 0.153493 -0.250045
v -0.431515 0.153493 -0.229624
v -0.450080 0.153493 -0.229624
v -0.450080 0.153493 0.229624
v -0.450080 0.153493 0.250045
v -0.431515 0.153493 0.229624
v -0.431515 0.153493 0.250045
v 0.431515 0.153493 0.250045
v 0.450080 0.153493 0.250045
v 0.431515 0.153493 0.229624
v 0.450080 0.153493 0.229624
v 0.450080 0.153493 -0.229624
v 0.450080 0.153493 -0.250045
v 0.431515 0.153493 -0.229624
v 0.431515 0.153493 -0.250045
v -0.431515 0.133489 -0.250045
v -0.450080 0.133489 -0.250045
v -0.450080 0.133489 -0.229624
v -0.450080 0.133489 0.229624
v -0.450080 0.133489 0.250045
v -0.431515 0.133489 0.250045
v 0.431515 0.133489 0.250045
v 0.450080 0.133489 0.250045
v 0.450080 0.133489 0.229624
v 0.450080 0.133489 -0.229624
v 0.450080 0.133489 -0.250045
v 0.431515 0.133489 -0.250045
v -0.431515 0.133489 -0.229624
v -0.431515 0.133489 0.229624
v 0.431515 0.133489 0.229624
v 0.431515 0.133489 -0.229624
v -0.431515 0.153493 -0.229624
v -0.431515 0.133489 -0.229624
v 0.431515 0.133489 -0.229624
v 0.431515 0.153493 -0.229624
v -0.431515 0.133489 -0.229624
v 0.431515 0.133489 -0.229624
v -0.431515 0.153493 -0.229624
v 0.431515 0.153493 -0.229624
v -0.431515 0.133489 0.229624
v -0.431515 0.153493 0.229624
v 0.431515 0.153493 0.229624
v 0.431515 0.133489 0.229624
v -0.431515 0.153493 0.229624
v 0.431515 0.153493 0.229624
v -0.431515 0.133489 0.229624
v 0.431515 0.133489 0.229624
vt -3.989071 -0.032666
vt -4.851946 -0.032666
vt -4.851946 -0.491833
vt -3.989071 -0.331360
vt -3.989071 -0.311360
vt -4.851946 -0.311360
vt 1.491833 -0.331360
vt 1.491833 -0.311360
vt 1.032666 -0.311360
vt 5.851946 -0.331360
vt 5.851946 -0.311360
vt 4.989071 -0.311360
vt -0.032666 -0.331360
vt -0.032666 -0.311360
vt -0.491833 -0.311360
vt -3.970509 -0.032666
vt -3.989071 -0.491833
vt -4.870508 -0.491833
vt -3.970509 -0.331360
vt -3.970509 -0.311360
vt -4.870508 -0.311360
vt -4.870508 -0.331360
vt -4.851946 -0.331360
vt 5.870508 -0.331360
vt 5.870508 -0.311360
vt 4.970509 -0.311360
vt 4.970509 -0.331360
vt 4.989071 -0.331360
vt -3.989071 -0.012250
vt -4.851946 -0.012250
vt -4.851946 -0.512250
vt -3.989071 -0.512250
vt 1.512250 -0.331360
vt 1.512250 -0.311360
vt 1.012250 -0.311360
vt 1.012250 -0.331360
vt 1.032666 -0.331360
vt -0.012250 -0.331360
vt -0.012250 -0.311360
vt -0.512250 -0.311360
vt -0.512250 -0.331360
vt -0.491833 -0.331360
vt -3.970509 -0.012250
vt -3.970509 -0.512250
vt -3.970509 -0.491833
vt -4.870508 -0.512250
vt -4.870508 -0.012250
vt -4.870508 -0.032666
vt -3.989071 -0.431360
vt -3.970509 -0.431360
vt -0.032666 -0.431360
vt -0.012250 -0.431360
vt 4.970509 -0.431360
vt 4.989071 -0.431360
vt 1.012250 -0.431360
vt 1.491833 -0.431360
vt 1.512250 -0.431360
vt -0.512250 -0.431360
vt -0.491833 -0.431360
vt 5.851946 -0.431360
vt 5.870508 -0.431360
vt -4.870508 -0.431360
vt -4.851946 -0.431360
vt -3.989071 -0.451360
vt -3.970509 -0.451360
vt 1.012250 -0.451360
vt 1.032666 -0.451360
vt 1.491833 -0.451360
vt 1.512250 -0.451360
vt 4.970509 -0.451360
vt 4.989071 -0.451360
vt 5.851946 -0.451360
vt 5.870508 -0.451360
vt -0.512250 -0.451360
vt -0.032666 -0.451360
vt -4.870508 -0.451360
vt -4.851946 -0.451360
vt -3.989071 -0.584306
vt -3.970509 -0.584306
vt -0.032666 -0.584306
vt -0.012250 -0.584306
vt 4.970509 -0.584306
vt 4.989071 -0.584306
vt 1.012250 -0.584306
vt 1.032666 -0.584306
vt 1.491833 -0.584306
vt 1.512250 -0.584306
vt -0.491833 -0.451360
vt -0.512250 -0.584306
vt 5.851946 -0.584306
vt 5.870508 -0.584306
vt -4.870508 -0.584306
vt -4.851946 -0.584306
vt 4.970509 -0.032666
vt 4.970509 -0.491833
vt 4.989071 -0.491833
vt 5.870508 -0.491833
vt 5.870508 -0.032666
vt 5.851946 -0.032666
vt 5.851946 -0.491833
vt 4.989071 -0.032666
vt 5.851946 -0.012250
vt 4.989071 -0.512250
vt 5.851946 -0.512250
vt 1.032666 -0.431360
vt -0.012250 -0.451360
vt -0.491833 -0.584306
vt 4.989071 -0.012250
vn 0.000000 -1.000000 -0.000000
vn 0.000000 0.000000 -1.000000
vn -1.000000 0.000000 0.000000
vn 0.000000 0.000000 1.000000
vn 1.000000 -0.000000 0.000000
vn 0.000000 1.000000 0.000000
usemtl base_material.001
s 1
f 30/49/6 31/50/6 32/51/6
f 34/52/7 35/53/7 36/54/7
f 38/55/8 39/56/8 40/57/8
f 42/58/9 43/59/9 44/60/9
f 46/61/10 47/62/10 48/63/10
f 37/64/6 30/49/6 29/65/6
f 45/66/6 32/51/6 31/50/6
f 49/67/7 50/68/7 35/53/7
f 51/69/7 52/70/7 33/71/7
f 53/72/9 54/73/9 43/59/9
f 55/74/9 56/75/9 41/76/9
f 34/77/6 33/78/6 31/50/6
f 42/79/6 41/80/6 29/65/6
f 56/81/8 55/82/8 39/56/8
f 50/83/8 49/84/8 37/85/8
f 52/86/10 51/87/10 47/62/10
f 54/88/10 53/89/10 45/90/10
f 58/91/6 59/77/6 60/49/6
f 62/80/6 63/92/6 64/93/6
f 66/94/6 67/79/6 68/51/6
f 70/78/6 71/95/6 72/96/6
f 34/52/7 73/97/7 74/98/7
f 30/61/10 75/99/10 73/100/10
f 37/75/9 76/101/9 75/102/9
f 37/85/8 49/84/8 74/103/8
f 38/55/8 77/104/8 78/105/8
f 29/52/7 79/97/7 77/98/7
f 41/89/10 80/106/10 79/107/10
f 56/75/9 78/101/9 80/102/9
f 42/58/9 81/108/9 82/109/9
f 32/55/8 83/104/8 81/105/8
f 45/70/7 84/110/7 83/111/7
f 53/89/10 82/106/10 84/107/10
f 46/61/10 85/99/10 86/100/10
f 31/58/9 87/108/9 85/109/9
f 31/85/8 33/84/8 88/103/8
f 52/70/7 86/110/7 88/111/7
f 73/97/7 89/112/7 90/113/7
f 74/103/8 90/114/8 91/115/8
f 77/104/8 92/116/8 93/117/8
f 78/101/9 93/118/9 94/119/9
f 81/108/9 95/120/9 96/121/9
f 84/107/10 82/106/10 96/122/10
f 86/100/10 85/99/10 98/123/10
f 86/110/7 99/124/7 100/125/7
f 89/112/7 59/126/7 58/127/7
f 101/123/10 60/128/10 59/129/10
f 91/118/9 57/130/9 60/131/9
f 90/114/8 58/132/8 57/133/8
f 92/116/8 64/134/8 63/135/8
f 102/112/7 61/126/7 64/127/7
f 102/136/10 94/122/10 62/137/10
f 93/118/9 63/130/9 62/131/9
f 95/120/9 67/138/9 66/139/9
f 103/116/8 68/134/8 67/135/8
f 97/124/7 65/140/7 68/141/7
f 97/136/10 96/122/10 66/137/10
f 98/123/10 72/128/10 71/129/10
f 104/120/9 69/138/9 72/139/9
f 100/114/8 70/132/8 69/133/8
f 99/124/7 71/140/7 70/141/7
f 76/142/11 77/143/11 79/144/11
f 91/115/8 92/116/8 77/104/8
f 101/49/6 102/65/6 92/93/6
f 84/145/11 85/146/11 87/147/11
f 84/107/10 97/136/10 98/123/10
f 103/51/6 104/50/6 98/96/6
f 75/97/7 87/111/7 104/125/7
f 79/144/11 83/148/11 87/147/11
f 102/119/9 103/120/9 83/108/9
f 101/49/6 104/50/6 103/51/6
f 106/119/9 107/120/9 108/108/9
f 89/77/6 100/78/6 110/50/6
f 73/97/7 88/111/7 100/125/7
f 111/149/11 112/147/11 88/150/11
f 114/97/7 115/111/7 116/125/7
f 80/151/11 81/152/11 118/148/11
f 94/119/9 95/120/9 81/108/9
f 119/65/6 120/51/6 95/79/6
f 29/65/6 30/49/6 32/51/6
f 33/71/7 34/52/7 36/54/7
f 37/85/8 38/55/8 40/57/8
f 41/76/9 42/58/9 44/60/9
f 45/90/10 46/61/10 48/63/10
f 38/93/6 37/64/6 29/65/6
f 46/96/6 45/66/6 31/50/6
f 34/52/7 49/67/7 35/53/7
f 36/54/7 51/69/7 33/71/7
f 42/58/9 53/72/9 43/59/9
f 44/60/9 55/74/9 41/76/9
f 30/49/6 34/77/6 31/50/6
f 32/51/6 42/79/6 29/65/6
f 38/55/8 56/81/8 39/56/8
f 40/57/8 50/83/8 37/85/8
f 46/61/10 52/86/10 47/62/10
f 48/63/10 54/88/10 45/90/10
f 57/64/6 58/91/6 60/49/6
f 61/65/6 62/80/6 64/93/6
f 65/66/6 66/94/6 68/51/6
f 69/50/6 70/78/6 72/96/6
f 49/67/7 34/52/7 74/98/7
f 34/86/10 30/61/10 73/100/10
f 30/76/9 37/75/9 75/102/9
f 76/153/8 37/85/8 74/103/8
f 56/81/8 38/55/8 78/105/8
f 38/67/7 29/52/7 77/98/7
f 29/90/10 41/89/10 79/107/10
f 41/76/9 56/75/9 80/102/9
f 53/72/9 42/58/9 82/109/9
f 42/81/8 32/55/8 81/105/8
f 32/71/7 45/70/7 83/111/7
f 45/90/10 53/89/10 84/107/10
f 52/86/10 46/61/10 86/100/10
f 46/72/9 31/58/9 85/109/9
f 87/153/8 31/85/8 88/103/8
f 33/71/7 52/70/7 88/111/7
f 74/98/7 73/97/7 90/113/7
f 76/153/8 74/103/8 91/115/8
f 78/105/8 77/104/8 93/117/8
f 80/102/9 78/101/9 94/119/9
f 82/109/9 81/108/9 96/121/9
f 97/136/10 84/107/10 96/122/10
f 99/154/10 86/100/10 98/123/10
f 88/111/7 86/110/7 100/125/7
f 90/113/7 89/112/7 58/127/7
f 89/154/10 101/123/10 59/129/10
f 101/119/9 91/118/9 60/131/9
f 91/115/8 90/114/8 57/133/8
f 93/117/8 92/116/8 63/135/8
f 92/113/7 102/112/7 64/127/7
f 61/155/10 102/136/10 62/137/10
f 94/119/9 93/118/9 62/131/9
f 96/121/9 95/120/9 66/139/9
f 95/117/8 103/116/8 67/135/8
f 103/125/7 97/124/7 68/141/7
f 65/155/10 97/136/10 66/137/10
f 99/154/10 98/123/10 71/129/10
f 98/121/9 104/120/9 72/139/9
f 104/115/8 100/114/8 69/133/8
f 100/125/7 99/124/7 70/141/7
f 75/149/11 76/142/11 79/144/11
f 76/153/8 91/115/8 77/104/8
f 91/64/6 101/49/6 92/93/6
f 83/148/11 84/145/11 87/147/11
f 85/99/10 84/107/10 98/123/10
f 97/66/6 103/51/6 98/96/6
f 101/112/7 75/97/7 104/125/7
f 75/149/11 79/144/11 87/147/11
f 79/102/9 102/119/9 83/108/9
f 102/65/6 101/49/6 103/51/6
f 105/102/9 106/119/9 108/108/9
f 109/49/6 89/77/6 110/50/6
f 89/112/7 73/97/7 100/125/7
f 73/156/11 111/149/11 88/150/11
f 113/112/7 114/97/7 116/125/7
f 117/144/11 80/151/11 118/148/11
f 80/102/9 94/119/9 81/108/9
f 94/80/6 119/65/6 95/79/6
