# Blender v2.79 (sub 0) OBJ File: ''
# www.blender.org
mtllib floorTemp.mtl
o Plane
v -3.394692 0.402970 5.230425
v 5.199647 0.402970 5.230425
v -3.394692 0.402970 -3.363914
v 5.199647 0.402970 -3.363914
v -3.394692 0.426114 5.230425
v 5.199647 0.426114 5.230425
v -3.394692 0.426114 -3.363914
v 5.199647 0.426114 -3.363914
vt 0.499879 0.000121
vt 0.000121 0.499878
vt 0.499879 0.499878
vt 0.000121 0.999878
vt 0.499879 0.500121
vt 0.499879 0.999878
vt 0.999879 0.011896
vt 0.500121 0.006130
vt 0.500121 0.011896
vt 0.500121 0.023914
vt 0.999879 0.018148
vt 0.999879 0.023914
vt 0.500121 0.017905
vt 0.999879 0.012139
vt 0.999879 0.017905
vt 0.999879 0.005887
vt 0.500121 0.000121
vt 0.500121 0.005887
vt 0.000121 0.000121
vt 0.000121 0.500121
vt 0.999879 0.006130
vt 0.500121 0.018148
vt 0.500121 0.012139
vt 0.999879 0.000121
vn 0.0000 -1.0000 0.0000
vn 0.0000 1.0000 0.0000
vn 0.0000 0.0000 -1.0000
vn 0.0000 0.0000 1.0000
vn 1.0000 0.0000 0.0000
vn -1.0000 0.0000 0.0000
usemtl Material.001
s off
f 3/1/1 2/2/1 1/3/1
f 6/4/2 7/5/2 5/6/2
f 3/7/3 8/8/3 4/9/3
f 2/10/4 5/11/4 1/12/4
f 4/13/5 6/14/5 2/15/5
f 1/16/6 7/17/6 3/18/6
f 3/1/1 4/19/1 2/2/1
f 6/4/2 8/20/2 7/5/2
f 3/7/3 7/21/3 8/8/3
f 2/10/4 6/22/4 5/11/4
f 4/13/5 8/23/5 6/14/5
f 1/16/6 5/24/6 7/17/6
