# Blender v2.75 (sub 0) OBJ File: ''
# www.blender.org
mtllib inverted_normal_floor_ceiling.mtl
o Cube.001
v -1.000000 0.000000 -1.000000
v -1.000000 -0.000000 1.000000
v 1.000000 -0.000000 1.000000
v 0.999999 2.000000 1.000001
v -1.000000 2.000000 1.000000
v -1.000000 2.000000 -1.000000
v 1.000000 0.000000 -1.000000
v 1.000000 2.000000 -0.999999
vt 0.000000 0.996094
vt 0.000000 0.000000
vt 0.996094 0.000000
vt 0.996094 0.996094
vn 0.000000 1.000000 0.000000
vn 0.000000 -1.000000 -0.000000
usemtl Material.001
s 1
f 1/1/1 2/2/1 3/3/1
f 4/4/2 5/1/2 6/2/2
f 7/4/1 1/1/1 3/3/1
f 8/3/2 4/4/2 6/2/2
