# Blender v2.75 (sub 0) OBJ File: ''
# www.blender.org
mtllib untitled.mtl
o Cube_Cube.001
v 1.000000 0.000000 -1.000000
v 1.000000 -0.000000 1.000000
v 1.000000 2.000000 1.000000
v -1.000000 0.000000 -1.000000
v 1.000000 2.000000 -1.000000
v -1.000000 0.002138 1.000000
v -1.000000 2.002138 -1.000000
v -1.000000 2.002138 1.000000
vt 0.996094 0.996094
vt 0.996094 0.000000
vt 0.000000 0.000000
vt 0.000000 0.996094
vn -1.000000 -0.000000 0.000000
vn 0.000000 -0.000000 1.000000
vn 1.000000 -0.000000 0.000000
vn 0.000000 0.000000 -1.000000
usemtl None
s 1
f 1/1/1 2/2/1 3/3/1
f 4/3/2 1/2/2 5/1/2
f 6/3/3 4/2/3 7/1/3
f 6/2/4 8/1/4 3/4/4
f 5/4/1 1/1/1 3/3/1
f 7/4/2 4/3/2 5/1/2
f 8/4/3 6/3/3 7/1/3
f 2/3/4 6/2/4 3/4/4
