# Blender v2.75 (sub 0) OBJ File: ''
# www.blender.org
mtllib inverted_normal_cube1.mtl
o Cube_Cube.001
v -1.000000 -0.000000 1.000000
v -1.000000 2.000000 1.000000
v -1.000000 -0.000000 -1.000000
v -1.000000 2.000000 -1.000000
v 1.000000 -0.000000 1.000000
v 1.000000 2.000000 1.000000
v 1.000000 -0.000000 -1.000000
v 1.000000 2.000000 -1.000000
vt 0.000090 0.948707
vt 0.020149 0.249807
vt 0.366000 0.548392
vt 0.810805 0.999910
vt 0.341399 0.570304
vt 0.810805 0.000090
vt 0.357629 0.590299
vt 0.367723 0.571581
vn -1.000000 0.000000 0.000000
vn 0.000000 0.000000 1.000000
vn 1.000000 0.000000 0.000000
vn 0.000000 0.000000 -1.000000
usemtl None
s off
f 7/1/1 5/2/1 6/3/1
f 3/4/2 7/1/2 8/5/2
f 1/6/3 3/4/3 4/7/3
f 1/6/4 2/8/4 6/3/4
f 8/5/1 7/1/1 6/3/1
f 4/7/2 3/4/2 8/5/2
f 2/8/3 1/6/3 4/7/3
f 5/2/4 1/6/4 6/3/4
