# Blender v2.75 (sub 0) OBJ File: ''
# www.blender.org
mtllib painting.mtl
o Cube_Cube.001
v -0.024435 2.750000 -0.500000
v -0.024435 1.750000 -0.500000
v -0.024435 1.750000 0.500000
v 0.024435 2.750000 -0.500000
v 0.024435 1.750000 -0.500000
v 0.024435 2.750000 0.500000
v 0.024435 1.750000 0.500000
v -0.024435 2.750000 0.500000
vt 0.999900 0.999900
vt 0.000100 0.999900
vt 0.000100 0.000100
vt 0.000000 0.000000
vt 0.999900 0.000100
vn -1.000000 0.000000 0.000000
vn 0.000000 0.000000 -1.000000
vn 1.000000 0.000000 0.000000
vn 0.000000 -0.000000 1.000000
vn 0.000000 -1.000000 -0.000000
vn 0.000000 1.000000 0.000000
usemtl None
s 1
f 1/1/1 2/2/1 3/3/1
f 4/4/2 5/4/2 2/4/2
f 6/1/3 7/2/3 5/3/3
f 8/4/4 3/4/4 7/4/4
f 2/4/5 5/4/5 7/4/5
f 4/4/6 1/4/6 8/4/6
f 8/5/1 1/1/1 3/3/1
f 1/4/2 4/4/2 2/4/2
f 4/5/3 6/1/3 5/3/3
f 6/4/4 8/4/4 7/4/4
f 3/4/5 2/4/5 7/4/5
f 6/4/6 4/4/6 8/4/6
