# Blender v2.75 (sub 0) OBJ File: ''
# www.blender.org
mtllib torchere1.mtl
o plafond_Untitled.001
v 0.075380 1.095766 -0.209843
v 0.075380 1.428316 -0.209843
v 0.142605 1.428316 -0.171406
v 0.142605 1.095766 -0.171406
v 0.074243 1.425744 -0.206678
v 0.140454 1.425744 -0.168821
v 0.074243 1.098338 -0.206678
v 0.140454 1.098338 -0.168821
v 0.192629 1.428316 -0.112295
v 0.192629 1.095766 -0.112295
v 0.189724 1.425744 -0.110602
v 0.189724 1.098338 -0.110602
v 0.219419 1.428316 -0.039640
v 0.219419 1.095766 -0.039640
v 0.216110 1.425744 -0.039042
v 0.216110 1.098338 -0.039042
v 0.219744 1.428316 0.037796
v 0.219744 1.095766 0.037796
v 0.216430 1.425744 0.037226
v 0.216430 1.098338 0.037226
v 0.193565 1.428316 0.110674
v 0.193565 1.095766 0.110674
v 0.190646 1.425744 0.109005
v 0.190646 1.098338 0.109005
v 0.144039 1.428316 0.170202
v 0.144039 1.095766 0.170202
v 0.141866 1.425744 0.167636
v 0.141866 1.098338 0.167636
v 0.077139 1.428316 0.209202
v 0.077139 1.095766 0.209202
v 0.075976 1.425744 0.206047
v 0.075976 1.098338 0.206047
v 0.000936 1.428316 0.222969
v 0.000936 1.095766 0.222969
v 0.000922 1.425744 0.219606
v 0.000922 1.098338 0.219606
v -0.075380 1.428316 0.209842
v -0.075380 1.095766 0.209842
v -0.074244 1.425744 0.206678
v -0.074244 1.098338 0.206678
v -0.142605 1.428316 0.171406
v -0.142605 1.095766 0.171406
v -0.140454 1.425744 0.168821
v -0.140454 1.098338 0.168821
v -0.192629 1.428316 0.112295
v -0.192629 1.095766 0.112295
v -0.189724 1.425744 0.110601
v -0.189724 1.098338 0.110601
v -0.219419 1.428316 0.039640
v -0.219419 1.095766 0.039640
v -0.216110 1.425744 0.039042
v -0.216110 1.098338 0.039042
v -0.219744 1.428316 -0.037796
v -0.219744 1.095766 -0.037796
v -0.216430 1.425744 -0.037226
v -0.216430 1.098338 -0.037226
v -0.193565 1.428316 -0.110674
v -0.193565 1.095766 -0.110674
v -0.190646 1.425744 -0.109005
v -0.190646 1.098338 -0.109005
v -0.144039 1.428316 -0.170203
v -0.144039 1.095766 -0.170203
v -0.141866 1.425744 -0.167636
v -0.141866 1.098338 -0.167636
v -0.077139 1.428316 -0.209202
v -0.077139 1.095766 -0.209202
v -0.075976 1.425744 -0.206047
v -0.075976 1.098338 -0.206047
v -0.000936 1.428316 -0.222969
v -0.000936 1.095766 -0.222969
v -0.000922 1.425744 -0.219606
v -0.000922 1.098338 -0.219606
vt -5.959284 0.510745
vt -5.959284 0.843235
vt -6.026496 0.843235
vt -6.026496 0.510745
vt 6.959284 -6.409639
vt 6.958148 -6.412803
vt 7.024346 -6.450653
vt 7.026496 -6.448069
vt 6.958148 0.840665
vt 6.958148 0.513316
vt 7.024346 0.513316
vt 7.024346 0.840665
vt -5.958148 -6.412803
vt -5.959284 -6.409639
vt -6.026496 -6.448069
vt -6.024346 -6.450653
vt -6.448069 0.510745
vt -6.448069 0.843235
vt -6.507169 0.843235
vt -6.507169 0.510745
vt 7.073607 -6.508862
vt 7.076512 -6.507169
vt 7.450653 0.840665
vt 7.450653 0.513316
vt 7.508862 0.513316
vt 7.508862 0.840665
vt -6.076512 -6.507169
vt -6.073607 -6.508862
vt -6.579811 0.843235
vt -6.579811 0.510745
vt 7.099988 -6.580409
vt 7.103297 -6.579811
vt 7.580409 0.513316
vt 7.580409 0.840665
vt -6.103297 -6.579811
vt -6.099988 -6.580409
vt -6.657234 0.843235
vt -6.657234 0.510745
vt 7.100309 -6.656663
vt 7.103622 -6.657234
vt 7.656663 0.513316
vt 7.656663 0.840665
vt -6.103622 -6.657234
vt -6.100309 -6.656663
vt -6.730098 0.843235
vt -6.730098 0.510745
vt 7.074529 -6.728429
vt 7.077447 -6.730098
vt 7.728429 0.513316
vt 7.728429 0.840665
vt -6.077447 -6.730098
vt -6.074529 -6.728429
vt -6.789616 0.843235
vt -6.789616 0.510745
vt 7.025758 -6.787050
vt 7.027930 -6.789616
vt 7.787050 0.513316
vt 7.787050 0.840665
vt -6.027930 -6.789616
vt -6.025758 -6.787050
vt 7.027930 0.510745
vt 7.027930 0.843235
vt 6.961043 0.843235
vt 6.961043 0.510745
vt 6.959880 -6.825454
vt 6.961043 -6.828609
vt -6.025758 0.840665
vt -6.025758 0.513316
vt -5.959880 0.513316
vt -5.959880 0.840665
vt -5.961043 -6.828609
vt -5.959880 -6.825454
vt 6.884853 0.843235
vt 6.884853 0.510745
vt 6.884839 -6.839011
vt 6.884853 -6.842373
vt -5.884839 0.513316
vt -5.884839 0.840665
vt -5.884853 -6.842373
vt -5.884839 -6.839011
vt 6.808550 0.843235
vt 6.808550 0.510745
vt 6.809687 -6.826085
vt 6.808550 -6.829249
vt -5.809687 0.513316
vt -5.809687 0.840665
vt -5.808550 -6.829249
vt -5.809687 -6.826085
vt 6.741338 0.843235
vt 6.741338 0.510745
vt 6.743488 -6.788235
vt 6.741338 -6.790819
vt -5.743488 0.513316
vt -5.743488 0.840665
vt -5.741338 -6.790819
vt -5.743488 -6.788235
vt 7.790819 0.510745
vt 7.790819 0.843235
vt 7.731719 0.843235
vt 7.731719 0.510745
vt 6.694228 -6.730026
vt 6.691323 -6.731719
vt -6.788235 0.840665
vt -6.788235 0.513316
vt -6.730026 0.513316
vt -6.730026 0.840665
vt -5.691323 -6.731719
vt -5.694228 -6.730026
vt 7.659077 0.843235
vt 7.659077 0.510745
vt 6.667846 -6.658479
vt 6.664537 -6.659077
vt -6.658479 0.513316
vt -6.658479 0.840665
vt -5.664537 -6.659077
vt -5.667846 -6.658479
vt 7.581654 0.843235
vt 7.581654 0.510745
vt 6.667526 -6.582224
vt 6.664212 -6.581654
vt -6.582224 0.513316
vt -6.582224 0.840665
vt -5.664212 -6.581654
vt -5.667526 -6.582224
vt 7.508790 0.843235
vt 7.508790 0.510745
vt 6.693306 -6.510458
vt 6.690387 -6.508790
vt -6.510458 0.513316
vt -6.510458 0.840665
vt -5.690387 -6.508790
vt -5.693306 -6.510458
vt 7.449272 0.843235
vt 7.449272 0.510745
vt 6.742076 -6.451838
vt 6.739904 -6.449272
vt -6.451838 0.513316
vt -6.451838 0.840665
vt -5.739904 -6.449272
vt -5.742076 -6.451838
vt -5.739904 0.510745
vt -5.739904 0.843235
vt -5.806792 0.843235
vt -5.806792 0.510745
vt 6.807955 -6.413434
vt 6.806792 -6.410279
vt 6.742076 0.840665
vt 6.742076 0.513316
vt 6.807955 0.513316
vt 6.807955 0.840665
vt -5.806792 -6.410279
vt -5.807955 -6.413434
vt -5.882982 0.843235
vt -5.882982 0.510745
vt 6.882996 -6.399877
vt 6.882982 -6.396515
vt 6.882996 0.513316
vt 6.882996 0.840665
vt -5.882982 -6.396515
vt -5.882996 -6.399877
vn 0.338100 0.000000 -0.941100
vn 0.639600 0.000000 -0.768700
vn -0.205400 0.794300 0.571700
vn -0.388500 0.794300 0.467000
vn -0.338100 -0.000000 0.941100
vn -0.639600 -0.000000 0.768700
vn -0.205400 -0.794300 0.571700
vn -0.388600 -0.794300 0.467000
vn -0.388500 -0.794300 0.467000
vn 0.863900 0.000000 -0.503600
vn -0.524900 0.794300 0.306000
vn -0.863900 -0.000000 0.503600
vn -0.524900 -0.794300 0.306000
vn 0.984100 -0.000000 -0.177800
vn -0.597900 0.794300 0.108000
vn -0.984100 -0.000000 0.177800
vn -0.597900 -0.794300 0.108000
vn 0.985500 -0.000000 0.169500
vn -0.598700 0.794300 -0.103000
vn -0.985500 -0.000000 -0.169500
vn -0.598700 -0.794300 -0.103000
vn 0.868100 -0.000000 0.496400
vn -0.527400 0.794300 -0.301500
vn -0.868100 0.000000 -0.496400
vn -0.527200 -0.794500 -0.301400
vn 0.646000 -0.000000 0.763300
vn -0.392500 0.794300 -0.463800
vn -0.646000 0.000000 -0.763300
vn -0.392500 -0.794300 -0.463800
vn -0.392300 -0.794500 -0.463600
vn 0.346000 -0.000000 0.938200
vn -0.210200 0.794300 -0.570000
vn -0.346000 0.000000 -0.938200
vn -0.210200 -0.794300 -0.570100
vn -0.210200 -0.794300 -0.570000
vn 0.004200 -0.000000 1.000000
vn -0.002600 0.794300 -0.607500
vn -0.004200 0.000000 -1.000000
vn -0.002500 -0.794300 -0.607500
vn 0.205400 0.794200 -0.571900
vn 0.205400 -0.794500 -0.571500
vn 0.205400 -0.794200 -0.571900
vn 0.388500 0.794300 -0.467000
vn 0.388600 -0.794300 -0.467000
vn 0.388500 -0.794300 -0.467000
vn 0.524800 0.794300 -0.306000
vn 0.524800 -0.794300 -0.306000
vn 0.524900 -0.794300 -0.306000
vn 0.597900 0.794300 -0.108000
vn 0.597900 -0.794300 -0.108000
vn 0.598700 0.794300 0.103000
vn 0.598700 -0.794300 0.103000
vn 0.527400 0.794300 0.301500
vn 0.527200 -0.794500 0.301400
vn 0.527400 -0.794300 0.301600
vn 0.392400 0.794300 0.463700
vn 0.392400 -0.794300 0.463700
vn -0.346000 0.000000 -0.938300
vn 0.210200 0.794300 0.570000
vn 0.210200 -0.794300 0.570000
vn 0.002600 0.794300 0.607500
vn 0.002500 -0.794300 0.607500
vn 0.002600 -0.794300 0.607500
usemtl base_material.002
s 1
f 1/1/1 2/2/1 3/3/2
f 3/3/2 4/4/2 1/1/1
f 2/5/3 5/6/3 6/7/4
f 6/7/4 3/8/4 2/5/3
f 5/9/5 7/10/5 8/11/6
f 8/11/6 6/12/6 5/9/5
f 7/13/7 1/14/7 4/15/8
f 4/15/8 8/16/9 7/13/7
f 4/17/2 3/18/2 9/19/10
f 9/19/10 10/20/10 4/17/2
f 3/8/4 6/7/4 11/21/11
f 11/21/11 9/22/11 3/8/4
f 6/23/6 8/24/6 12/25/12
f 12/25/12 11/26/12 6/23/6
f 8/16/9 4/15/8 10/27/13
f 10/27/13 12/28/13 8/16/9
f 10/20/10 9/19/10 13/29/14
f 13/29/14 14/30/14 10/20/10
f 9/22/11 11/21/11 15/31/15
f 15/31/15 13/32/15 9/22/11
f 11/26/12 12/25/12 16/33/16
f 16/33/16 15/34/16 11/26/12
f 12/28/13 10/27/13 14/35/17
f 14/35/17 16/36/17 12/28/13
f 14/30/14 13/29/14 17/37/18
f 17/37/18 18/38/18 14/30/14
f 13/32/15 15/31/15 19/39/19
f 19/39/19 17/40/19 13/32/15
f 15/34/16 16/33/16 20/41/20
f 20/41/20 19/42/20 15/34/16
f 16/36/17 14/35/17 18/43/21
f 18/43/21 20/44/21 16/36/17
f 18/38/18 17/37/18 21/45/22
f 21/45/22 22/46/22 18/38/18
f 17/40/19 19/39/19 23/47/23
f 23/47/23 21/48/23 17/40/19
f 19/42/20 20/41/20 24/49/24
f 24/49/24 23/50/24 19/42/20
f 20/44/21 18/43/21 22/51/25
f 22/51/25 24/52/25 20/44/21
f 22/46/22 21/45/22 25/53/26
f 25/53/26 26/54/26 22/46/22
f 21/48/23 23/47/23 27/55/27
f 27/55/27 25/56/27 21/48/23
f 23/50/24 24/49/24 28/57/28
f 28/57/28 27/58/28 23/50/24
f 24/52/25 22/51/25 26/59/29
f 26/59/29 28/60/30 24/52/25
f 26/61/26 25/62/26 29/63/31
f 29/63/31 30/64/31 26/61/26
f 25/56/27 27/55/27 31/65/32
f 31/65/32 29/66/32 25/56/27
f 27/67/28 28/68/28 32/69/33
f 32/69/33 31/70/33 27/67/28
f 28/60/30 26/59/29 30/71/34
f 30/71/34 32/72/35 28/60/30
f 30/64/31 29/63/31 33/73/36
f 33/73/36 34/74/36 30/64/31
f 29/66/32 31/65/32 35/75/37
f 35/75/37 33/76/37 29/66/32
f 31/70/33 32/69/33 36/77/38
f 36/77/38 35/78/38 31/70/33
f 32/72/35 30/71/34 34/79/39
f 34/79/39 36/80/39 32/72/35
f 34/74/36 33/73/36 37/81/5
f 37/81/5 38/82/5 34/74/36
f 33/76/37 35/75/37 39/83/40
f 39/83/40 37/84/40 33/76/37
f 35/78/38 36/77/38 40/85/1
f 40/85/1 39/86/1 35/78/38
f 36/80/39 34/79/39 38/87/41
f 38/87/41 40/88/42 36/80/39
f 38/82/5 37/81/5 41/89/6
f 41/89/6 42/90/6 38/82/5
f 37/84/40 39/83/40 43/91/43
f 43/91/43 41/92/43 37/84/40
f 39/86/1 40/85/1 44/93/2
f 44/93/2 43/94/2 39/86/1
f 40/88/42 38/87/41 42/95/44
f 42/95/44 44/96/45 40/88/42
f 42/97/6 41/98/6 45/99/12
f 45/99/12 46/100/12 42/97/6
f 41/92/43 43/91/43 47/101/46
f 47/101/46 45/102/46 41/92/43
f 43/103/2 44/104/2 48/105/10
f 48/105/10 47/106/10 43/103/2
f 44/96/45 42/95/44 46/107/47
f 46/107/47 48/108/48 44/96/45
f 46/100/12 45/99/12 49/109/16
f 49/109/16 50/110/16 46/100/12
f 45/102/46 47/101/46 51/111/49
f 51/111/49 49/112/49 45/102/46
f 47/106/10 48/105/10 52/113/14
f 52/113/14 51/114/14 47/106/10
f 48/108/48 46/107/47 50/115/50
f 50/115/50 52/116/50 48/108/48
f 50/110/16 49/109/16 53/117/20
f 53/117/20 54/118/20 50/110/16
f 49/112/49 51/111/49 55/119/51
f 55/119/51 53/120/51 49/112/49
f 51/114/14 52/113/14 56/121/18
f 56/121/18 55/122/18 51/114/14
f 52/116/50 50/115/50 54/123/52
f 54/123/52 56/124/52 52/116/50
f 54/118/20 53/117/20 57/125/24
f 57/125/24 58/126/24 54/118/20
f 53/120/51 55/119/51 59/127/53
f 59/127/53 57/128/53 53/120/51
f 55/122/18 56/121/18 60/129/22
f 60/129/22 59/130/22 55/122/18
f 56/124/52 54/123/52 58/131/54
f 58/131/54 60/132/55 56/124/52
f 58/126/24 57/125/24 61/133/28
f 61/133/28 62/134/28 58/126/24
f 57/128/53 59/127/53 63/135/56
f 63/135/56 61/136/56 57/128/53
f 59/130/22 60/129/22 64/137/26
f 64/137/26 63/138/26 59/130/22
f 60/132/55 58/131/54 62/139/57
f 62/139/57 64/140/57 60/132/55
f 62/141/28 61/142/28 65/143/58
f 65/143/58 66/144/58 62/141/28
f 61/136/56 63/135/56 67/145/59
f 67/145/59 65/146/59 61/136/56
f 63/147/26 64/148/26 68/149/31
f 68/149/31 67/150/31 63/147/26
f 64/140/57 62/139/57 66/151/60
f 66/151/60 68/152/60 64/140/57
f 66/144/58 65/143/58 69/153/38
f 69/153/38 70/154/38 66/144/58
f 65/146/59 67/145/59 71/155/61
f 71/155/61 69/156/61 65/146/59
f 67/150/31 68/149/31 72/157/36
f 72/157/36 71/158/36 67/150/31
f 68/152/60 66/151/60 70/159/62
f 70/159/62 72/160/63 68/152/60
f 70/154/38 69/153/38 2/2/1
f 2/2/1 1/1/1 70/154/38
f 69/156/61 71/155/61 5/6/3
f 5/6/3 2/5/3 69/156/61
f 71/158/36 72/157/36 7/10/5
f 7/10/5 5/9/5 71/158/36
f 72/160/63 70/159/62 1/14/7
f 1/14/7 7/13/7 72/160/63
o base_Untitled.001
v 0.150691 -0.002311 0.054132
v 0.160118 -0.002311 -0.000672
v 0.160118 0.007119 -0.000672
v 0.150691 0.007119 0.054132
v 0.150232 -0.002311 -0.055395
v 0.150232 0.007119 -0.055395
v 0.122225 -0.002311 -0.103437
v 0.122225 0.007119 -0.103437
v 0.079477 -0.002311 -0.139002
v 0.079477 0.007119 -0.139002
v 0.027142 -0.002311 -0.157802
v 0.027142 0.007119 -0.157802
v -0.028466 -0.002311 -0.157568
v -0.028466 0.007119 -0.157568
v -0.080641 -0.002311 -0.138330
v -0.080641 0.007119 -0.138330
v -0.123089 -0.002311 -0.102407
v -0.123089 0.007119 -0.102407
v -0.150691 -0.002311 -0.054132
v -0.150691 0.007119 -0.054132
v -0.160118 -0.002311 0.000672
v -0.160118 0.007119 0.000672
v -0.150232 -0.002311 0.055395
v -0.150232 0.007119 0.055395
v -0.122225 -0.002311 0.103437
v -0.122225 0.007119 0.103437
v -0.079477 -0.002311 0.139002
v -0.079477 0.007119 0.139002
v -0.027142 -0.002311 0.157802
v -0.027142 0.007119 0.157802
v 0.028466 -0.002311 0.157568
v 0.028466 0.007119 0.157568
v 0.080641 -0.002311 0.138330
v 0.080641 0.007119 0.138330
v 0.123089 -0.002311 0.102407
v 0.123089 0.007119 0.102407
v 0.008961 0.023625 -0.000038
v 0.008433 0.023625 0.003029
v 0.008407 0.023625 -0.003100
v 0.006840 0.023625 -0.005789
v 0.004448 0.023625 -0.007779
v 0.001519 0.023625 -0.008831
v -0.001593 0.023625 -0.008818
v -0.004513 0.023625 -0.007741
v -0.006888 0.023625 -0.005731
v -0.008433 0.023625 -0.003029
v -0.008961 0.023625 0.000038
v -0.008407 0.023625 0.003100
v -0.006840 0.023625 0.005789
v -0.004448 0.023625 0.007779
v -0.001519 0.023625 0.008831
v 0.001593 0.023625 0.008818
v 0.004513 0.023625 0.007741
v 0.006888 0.023625 0.005731
v 0.008961 1.230786 -0.000038
v 0.008433 1.230786 0.003029
v 0.008407 1.230786 -0.003100
v 0.006840 1.230786 -0.005789
v 0.004448 1.230786 -0.007779
v 0.001519 1.230786 -0.008831
v -0.001593 1.230786 -0.008818
v -0.004513 1.230786 -0.007741
v -0.006888 1.230786 -0.005731
v -0.008433 1.230786 -0.003029
v -0.008961 1.230786 0.000038
v -0.008407 1.230786 0.003100
v -0.006840 1.230786 0.005789
v -0.004448 1.230786 0.007779
v -0.001519 1.230786 0.008831
v 0.001593 1.230786 0.008818
v 0.004513 1.230786 0.007741
v 0.006888 1.230786 0.005731
v -0.218919 1.219451 0.002917
v -0.218936 1.219451 -0.001079
v 0.218919 1.219451 -0.002917
v 0.218936 1.219451 0.001078
v -0.218919 1.230637 0.002917
v 0.218936 1.230637 0.001078
v 0.218919 1.230637 -0.002917
v -0.218936 1.230637 -0.001079
v -0.002917 1.219451 -0.218919
v 0.001079 1.219451 -0.218936
v 0.002917 1.219451 0.218919
v -0.001079 1.219451 0.218936
v -0.002917 1.230637 -0.218919
v -0.001079 1.230637 0.218936
v 0.002917 1.230637 0.218919
v 0.001079 1.230637 -0.218936
vt -6.673566 -0.587136
vt -6.618772 -0.587136
vt -6.618772 -0.577708
vt -6.673566 -0.577708
vt -6.564059 -0.587136
vt -6.564059 -0.577708
vt -6.516026 -0.587136
vt -6.516026 -0.577708
vt -6.006121 -0.587136
vt -5.963380 -0.587136
vt -5.963380 -0.577708
vt -6.006121 -0.577708
vt -5.911055 -0.587136
vt -5.911055 -0.577708
vt -5.855456 -0.587136
vt -5.855456 -0.577708
vt -5.803291 -0.587136
vt -5.803291 -0.577708
vt -5.760850 -0.587136
vt -5.760850 -0.577708
vt 7.517056 -0.587136
vt 7.565321 -0.587136
vt 7.565321 -0.577708
vt 7.517056 -0.577708
vt 7.620116 -0.587136
vt 7.620116 -0.577708
vt 7.674829 -0.587136
vt 7.674829 -0.577708
vt 7.722862 -0.587136
vt 7.722862 -0.577708
vt 6.761714 -0.587136
vt 6.804455 -0.587136
vt 6.804455 -0.577708
vt 6.761714 -0.577708
vt 6.856780 -0.587136
vt 6.856780 -0.577708
vt 6.912378 -0.587136
vt 6.912378 -0.577708
vt 6.964544 -0.587136
vt 6.964544 -0.577708
vt 7.006985 -0.587136
vt 7.006985 -0.577708
vt -6.721832 -0.587136
vt -6.721832 -0.577708
vt 7.034582 -6.673566
vt 7.044006 -6.618772
vt 6.892876 -6.619406
vt 6.892349 -6.622473
vt 7.034122 -6.564059
vt 6.892323 -6.616344
vt 7.006121 -6.516026
vt 6.890756 -6.613657
vt 6.963380 -6.480467
vt 6.888364 -6.611666
vt 6.911055 -6.461670
vt 6.885436 -6.610614
vt 6.855456 -6.461904
vt 6.882325 -6.610628
vt 6.803291 -6.481139
vt 6.879405 -6.611704
vt 6.760850 -6.517056
vt 6.877030 -6.613714
vt 6.733253 -6.565321
vt 6.875486 -6.616415
vt 6.723828 -6.620116
vt 6.874959 -6.619482
vt 6.733713 -6.674829
vt 6.875512 -6.622543
vt 6.761714 -6.722862
vt 6.877079 -6.625231
vt 6.804455 -6.758421
vt 6.879470 -6.627222
vt 6.856780 -6.777217
vt 6.882399 -6.628273
vt 6.912378 -6.776984
vt 6.885510 -6.628260
vt 6.964544 -6.757749
vt 6.888430 -6.627184
vt 7.006985 -6.721832
vt 6.890804 -6.625174
vt -6.622473 -0.561204
vt -6.619406 -0.561204
vt -6.619406 0.645741
vt -6.622473 0.645741
vt -6.616344 -0.561204
vt -6.616344 0.645741
vt -6.613657 -0.561204
vt -6.613657 0.645741
vt -5.890756 -0.561204
vt -5.888364 -0.561204
vt -5.888364 0.645741
vt -5.890756 0.645741
vt -5.885436 -0.561204
vt -5.885436 0.645741
vt -5.882325 -0.561204
vt -5.882325 0.645741
vt -5.879405 -0.561204
vt -5.879405 0.645741
vt -5.877030 -0.561204
vt -5.877030 0.645741
vt 7.613714 -0.561204
vt 7.616415 -0.561204
vt 7.616415 0.645741
vt 7.613714 0.645741
vt 7.619482 -0.561204
vt 7.619482 0.645741
vt 7.622543 -0.561204
vt 7.622543 0.645741
vt 7.625231 -0.561204
vt 7.625231 0.645741
vt 6.877079 -0.561204
vt 6.879470 -0.561204
vt 6.879470 0.645741
vt 6.877079 0.645741
vt 6.882399 -0.561204
vt 6.882399 0.645741
vt 6.885510 -0.561204
vt 6.885510 0.645741
vt 6.888430 -0.561204
vt 6.888430 0.645741
vt 6.890804 -0.561204
vt 6.890804 0.645741
vt -6.625174 -0.561204
vt -6.625174 0.645741
vt -5.665038 -6.622360
vt -5.665021 -6.618366
vt -6.102797 -6.616528
vt -6.102814 -6.620522
vt 6.665038 -6.622360
vt 7.102814 -6.620522
vt 7.102797 -6.616528
vt 6.665021 -6.618366
vt 6.665038 0.634408
vt 7.102814 0.634408
vt 7.102814 0.645592
vt 6.665038 0.645592
vt -6.620522 0.634408
vt -6.616528 0.634408
vt -6.616528 0.645592
vt -6.620522 0.645592
vt -6.102797 0.634408
vt -5.665021 0.634408
vt -5.665021 0.645592
vt -6.102797 0.645592
vt 7.618366 0.634408
vt 7.622360 0.634408
vt 7.622360 0.645592
vt 7.618366 0.645592
vt -5.881001 -6.400564
vt -5.884996 -6.400547
vt -5.886833 -6.838324
vt -5.882839 -6.838341
vt 6.881001 -6.400564
vt 6.882839 -6.838341
vt 6.886833 -6.838324
vt 6.884996 -6.400547
vt 7.400564 0.634408
vt 7.838341 0.634408
vt 7.838341 0.645592
vt 7.400564 0.645592
vt 6.882839 0.634408
vt 6.886833 0.634408
vt 6.886833 0.645592
vt 6.882839 0.645592
vt -6.838324 0.634408
vt -6.400547 0.634408
vt -6.400547 0.645592
vt -6.838324 0.645592
vt -5.884996 0.634408
vt -5.881001 0.634408
vt -5.881001 0.645592
vt -5.884996 0.645592
vn 0.941100 -0.000000 0.338100
vn 1.000000 -0.000000 -0.004200
vn 0.938200 0.000000 -0.346000
vn 0.763300 0.000000 -0.646000
vn 0.496400 0.000000 -0.868100
vn 0.169500 0.000000 -0.985500
vn -0.177800 0.000000 -0.984100
vn -0.503600 0.000000 -0.863900
vn -0.768700 0.000000 -0.639600
vn -0.941100 0.000000 -0.338100
vn -1.000000 0.000000 0.004200
vn -0.938200 0.000000 0.346000
vn -0.763300 0.000000 0.646000
vn -0.496400 0.000000 0.868100
vn -0.169500 0.000000 0.985500
vn 0.177800 0.000000 0.984100
vn 0.503600 0.000000 0.863900
vn 0.768700 0.000000 0.639600
vn 0.102200 0.994100 0.036700
vn 0.108600 0.994100 -0.000500
vn 0.108500 0.994100 -0.000500
vn 0.101800 0.994100 -0.037600
vn 0.101900 0.994100 -0.037600
vn 0.082900 0.994100 -0.070100
vn 0.053900 0.994100 -0.094200
vn 0.018400 0.994100 -0.107000
vn -0.019300 0.994100 -0.106800
vn -0.054700 0.994100 -0.093800
vn -0.083400 0.994100 -0.069400
vn -0.102200 0.994100 -0.036700
vn -0.108600 0.994100 0.000500
vn -0.108500 0.994100 0.000500
vn -0.101800 0.994100 0.037600
vn -0.101900 0.994100 0.037600
vn -0.082900 0.994100 0.070100
vn -0.053900 0.994100 0.094200
vn -0.018400 0.994100 0.107000
vn 0.019300 0.994100 0.106800
vn 0.054700 0.994100 0.093800
vn 0.083400 0.994100 0.069400
vn 0.941100 -0.000000 0.338200
vn 1.000000 0.000000 -0.004300
vn 0.763400 0.000000 -0.645900
vn 0.496300 0.000000 -0.868100
vn -0.503700 0.000000 -0.863900
vn -0.941100 0.000000 -0.338200
vn -1.000000 -0.000000 0.004300
vn -0.763400 -0.000000 0.645900
vn -0.496300 -0.000000 0.868100
vn 0.503700 -0.000000 0.863900
vn 0.000000 -1.000000 0.000000
vn 0.000000 1.000000 -0.000000
vn 0.000000 1.000000 -0.000300
vn 0.004200 -0.000000 1.000000
vn -0.004200 0.000000 -1.000000
vn 0.004300 0.000000 1.000000
vn -0.004300 0.000000 -1.000000
usemtl base_material.002
s 1
f 73/161/64 74/162/65 75/163/65
f 75/163/65 76/164/64 73/161/64
f 74/162/65 77/165/66 78/166/66
f 78/166/66 75/163/65 74/162/65
f 77/165/66 79/167/67 80/168/67
f 80/168/67 78/166/66 77/165/66
f 79/169/67 81/170/68 82/171/68
f 82/171/68 80/172/67 79/169/67
f 81/170/68 83/173/69 84/174/69
f 84/174/69 82/171/68 81/170/68
f 83/173/69 85/175/70 86/176/70
f 86/176/70 84/174/69 83/173/69
f 85/175/70 87/177/71 88/178/71
f 88/178/71 86/176/70 85/175/70
f 87/177/71 89/179/72 90/180/72
f 90/180/72 88/178/71 87/177/71
f 89/181/72 91/182/73 92/183/73
f 92/183/73 90/184/72 89/181/72
f 91/182/73 93/185/74 94/186/74
f 94/186/74 92/183/73 91/182/73
f 93/185/74 95/187/75 96/188/75
f 96/188/75 94/186/74 93/185/74
f 95/187/75 97/189/76 98/190/76
f 98/190/76 96/188/75 95/187/75
f 97/191/76 99/192/77 100/193/77
f 100/193/77 98/194/76 97/191/76
f 99/192/77 101/195/78 102/196/78
f 102/196/78 100/193/77 99/192/77
f 101/195/78 103/197/79 104/198/79
f 104/198/79 102/196/78 101/195/78
f 103/197/79 105/199/80 106/200/80
f 106/200/80 104/198/79 103/197/79
f 105/199/80 107/201/81 108/202/81
f 108/202/81 106/200/80 105/199/80
f 107/203/81 73/161/64 76/164/64
f 76/164/64 108/204/81 107/203/81
f 76/205/82 75/206/83 109/207/84
f 109/207/84 110/208/82 76/205/82
f 75/206/83 78/209/85 111/210/86
f 111/210/86 109/207/84 75/206/83
f 78/209/85 80/211/87 112/212/87
f 112/212/87 111/210/86 78/209/85
f 80/211/87 82/213/88 113/214/88
f 113/214/88 112/212/87 80/211/87
f 82/213/88 84/215/89 114/216/89
f 114/216/89 113/214/88 82/213/88
f 84/215/89 86/217/90 115/218/90
f 115/218/90 114/216/89 84/215/89
f 86/217/90 88/219/91 116/220/91
f 116/220/91 115/218/90 86/217/90
f 88/219/91 90/221/92 117/222/92
f 117/222/92 116/220/91 88/219/91
f 90/221/92 92/223/93 118/224/93
f 118/224/93 117/222/92 90/221/92
f 92/223/93 94/225/94 119/226/95
f 119/226/95 118/224/93 92/223/93
f 94/225/94 96/227/96 120/228/97
f 120/228/97 119/226/95 94/225/94
f 96/227/96 98/229/98 121/230/98
f 121/230/98 120/228/97 96/227/96
f 98/229/98 100/231/99 122/232/99
f 122/232/99 121/230/98 98/229/98
f 100/231/99 102/233/100 123/234/100
f 123/234/100 122/232/99 100/231/99
f 102/233/100 104/235/101 124/236/101
f 124/236/101 123/234/100 102/233/100
f 104/235/101 106/237/102 125/238/102
f 125/238/102 124/236/101 104/235/101
f 106/237/102 108/239/103 126/240/103
f 126/240/103 125/238/102 106/237/102
f 108/239/103 76/205/82 110/208/82
f 110/208/82 126/240/103 108/239/103
f 110/241/104 109/242/105 127/243/105
f 127/243/105 128/244/104 110/241/104
f 109/242/105 111/245/66 129/246/66
f 129/246/66 127/243/105 109/242/105
f 111/245/66 112/247/106 130/248/106
f 130/248/106 129/246/66 111/245/66
f 112/249/106 113/250/107 131/251/107
f 131/251/107 130/252/106 112/249/106
f 113/250/107 114/253/69 132/254/69
f 132/254/69 131/251/107 113/250/107
f 114/253/69 115/255/70 133/256/70
f 133/256/70 132/254/69 114/253/69
f 115/255/70 116/257/108 134/258/108
f 134/258/108 133/256/70 115/255/70
f 116/257/108 117/259/72 135/260/72
f 135/260/72 134/258/108 116/257/108
f 117/261/72 118/262/109 136/263/109
f 136/263/109 135/264/72 117/261/72
f 118/262/109 119/265/110 137/266/110
f 137/266/110 136/263/109 118/262/109
f 119/265/110 120/267/75 138/268/75
f 138/268/75 137/266/110 119/265/110
f 120/267/75 121/269/111 139/270/111
f 139/270/111 138/268/75 120/267/75
f 121/271/111 122/272/112 140/273/112
f 140/273/112 139/274/111 121/271/111
f 122/272/112 123/275/78 141/276/78
f 141/276/78 140/273/112 122/272/112
f 123/275/78 124/277/79 142/278/79
f 142/278/79 141/276/78 123/275/78
f 124/277/79 125/279/113 143/280/113
f 143/280/113 142/278/79 124/277/79
f 125/279/113 126/281/81 144/282/81
f 144/282/81 143/280/113 125/279/113
f 126/283/81 110/241/104 128/244/104
f 128/244/104 144/284/81 126/283/81
f 145/285/114 146/286/114 147/287/114
f 147/287/114 148/288/114 145/285/114
f 149/289/115 150/290/115 151/291/116
f 151/291/116 152/292/115 149/289/115
f 145/293/117 148/294/117 150/295/117
f 150/295/117 149/296/117 145/293/117
f 148/297/105 147/298/105 151/299/105
f 151/299/105 150/300/105 148/297/105
f 147/301/118 146/302/118 152/303/118
f 152/303/118 151/304/118 147/301/118
f 146/305/110 145/306/110 149/307/110
f 149/307/110 152/308/110 146/305/110
f 153/309/114 154/310/114 155/311/114
f 155/311/114 156/312/114 153/309/114
f 157/313/115 158/314/115 159/315/115
f 159/315/115 160/316/115 157/313/115
f 153/317/74 156/318/74 158/319/74
f 158/319/74 157/320/74 153/317/74
f 156/321/119 155/322/119 159/323/119
f 159/323/119 158/324/119 156/321/119
f 155/325/65 154/326/65 160/327/65
f 160/327/65 159/328/65 155/325/65
f 154/329/120 153/330/120 157/331/120
f 157/331/120 160/332/120 154/329/120
