# Blender v2.79 (sub 0) OBJ File: ''
# www.blender.org
mtllib wall.mtl
o Plane
v -3.739544 8.607833 -0.004521
v 4.854795 8.607833 -0.004521
v -3.739544 0.013518 0.016126
v 4.854795 0.013518 0.016126
v -3.739544 8.607778 -0.027665
v 4.854795 8.607778 -0.027665
v -3.739544 0.013463 -0.007019
v 4.854795 0.013463 -0.007019
v -3.739544 8.607778 -0.027665
v 4.854795 8.607778 -0.027665
v -3.739544 0.013463 -0.007019
v 4.854795 0.013463 -0.007019
v -3.739544 8.607778 -0.027665
vt 0.499879 0.000121
vt 0.000121 0.499878
vt 0.499879 0.499878
vt 0.999879 0.012139
vt 0.500121 0.012139
vt 0.999879 0.012139
vt 0.999879 0.011896
vt 0.500121 0.006130
vt 0.500121 0.011896
vt 0.500121 0.023914
vt 0.999879 0.018148
vt 0.999879 0.023914
vt 0.500121 0.017905
vt 0.999879 0.017905
vt 0.999879 0.005887
vt 0.500121 0.000121
vt 0.500121 0.005887
vt 0.000121 0.999878
vt 0.499879 0.500121
vt 0.499879 0.999878
vt 0.999879 0.000121
vt 0.500121 0.000121
vt 0.999879 0.006130
vt 0.500121 0.006130
vt 0.500121 0.018148
vt 0.999879 0.018148
vt 0.000121 0.000121
vt 0.500121 0.012139
vt 0.999879 0.006130
vt 0.500121 0.018148
vt 0.999879 0.000121
vt 0.000121 0.500121
vn 0.0000 0.0024 1.0000
vn 0.0000 0.0000 1.0000
vn 0.0000 -1.0000 0.0024
vn 0.0000 1.0000 -0.0024
vn 1.0000 0.0000 0.0000
vn -1.0000 0.0000 0.0000
vn 0.0000 -0.0024 -1.0000
usemtl Material.001
s off
f 3/1/1 2/2/1 1/3/1
f 6/4/2 12/5/2 10/6/2
f 3/7/3 8/8/3 4/9/3
f 2/10/4 5/11/4 1/12/4
f 4/13/5 6/4/5 2/14/5
f 1/15/6 7/16/6 3/17/6
f 10/18/7 11/19/7 9/20/7
f 7/16/2 9/21/2 11/22/2
f 8/8/2 11/23/2 12/24/2
f 5/11/2 10/25/2 9/26/2
f 3/1/1 4/27/1 2/2/1
f 6/4/2 8/28/2 12/5/2
f 3/7/3 7/29/3 8/8/3
f 2/10/4 6/30/4 5/11/4
f 4/13/5 8/28/5 6/4/5
f 1/15/6 5/31/6 7/16/6
f 10/18/7 12/32/7 11/19/7
f 7/16/2 5/31/2 9/21/2
f 8/8/2 7/29/2 11/23/2
f 5/11/2 6/30/2 10/25/2
l 9 13
